<svg xmlns="http://www.w3.org/2000/svg" width="121.383" height="36.258" viewBox="0 0 121.383 36.258">
  <g id="Group_1" data-name="Group 1" transform="translate(7154.831 5952.114)">
    <g id="Group_35134" data-name="Group 35134" transform="translate(-7069.389 -5952.114)">
      <path id="Path_24662" data-name="Path 24662" d="M-678.8,364.152a11.68,11.68,0,0,1,3.5-8.229c3.078-3.075,6.156-6.068,9.233-9.1a1.273,1.273,0,0,1,2.319.582c.717,2.244,1.391,4.53,2.108,6.774a1.528,1.528,0,0,1-.464,1.787c-2.445,2.369-4.891,4.78-7.336,7.19-.97.956-.97,1.538,0,2.494,2.4,2.369,4.849,4.779,7.294,7.148a1.648,1.648,0,0,1,.464,1.912c-.717,2.244-1.391,4.489-2.108,6.774a1.281,1.281,0,0,1-2.234.582c-3.162-3.117-6.366-6.193-9.486-9.351A12.2,12.2,0,0,1-678.8,364.152Z" transform="translate(697.467 -346.271)" fill="#7a76fc"/>
      <path id="Path_24663" data-name="Path 24663" d="M-810.818,364.768a11.68,11.68,0,0,1-3.5,8.229c-3.078,3.076-6.156,6.068-9.234,9.1a1.273,1.273,0,0,1-2.319-.582c-.717-2.244-1.391-4.53-2.108-6.774a1.528,1.528,0,0,1,.464-1.787c2.445-2.369,4.891-4.78,7.336-7.19.97-.956.97-1.538,0-2.494-2.4-2.369-4.849-4.78-7.294-7.149a1.648,1.648,0,0,1-.464-1.912c.717-2.244,1.391-4.489,2.108-6.774a1.281,1.281,0,0,1,2.234-.582c3.162,3.117,6.366,6.193,9.486,9.351A12.341,12.341,0,0,1-810.818,364.768Z" transform="translate(828.093 -346.39)" fill="#7a76fc"/>
    </g>
    <g id="Group_35135" data-name="Group 35135" transform="translate(-7154.831 -5948.096)">
      <path id="Path_24664" data-name="Path 24664" d="M-482.813,641.824l3.377,2.07c-1.7,3.67-7.721,6.179-12.586,5.29a12.163,12.163,0,0,1-10.236-10.855A12.172,12.172,0,0,1-494,625.3c5.449-1.776,11.775.228,14.639,4.77l-3.435,2.116a8.679,8.679,0,0,0-12.929-1.125,8.677,8.677,0,0,0,.079,11.951A8.645,8.645,0,0,0-482.813,641.824Z" transform="translate(502.309 -624.11)" fill="#150327"/>
      <path id="Path_24665" data-name="Path 24665" d="M-268.98,656.819v-2.135h3.874c.02.286.061.592.061.9,0,5.185-.018,10.37.022,15.554.007.887-.254,1.189-1.131,1.123-.9-.067-1.806-.015-2.759-.015-.042-.805-.076-1.451-.112-2.144-4.881,3.425-9.391,3.3-12.489-.285a10.072,10.072,0,0,1,.131-12.922C-278.109,653.385-273.683,653.319-268.98,656.819Zm.012,6.611a5.286,5.286,0,0,0-5.333-5.477,5.351,5.351,0,0,0-5.492,5.45,5.355,5.355,0,0,0,5.466,5.484A5.305,5.305,0,0,0-268.968,663.431Z" transform="translate(330.056 -647.421)" fill="#150327"/>
      <path id="Path_24666" data-name="Path 24666" d="M-361.76,646.892c-1.1,0-2.15-.007-3.2,0-.736.006-.614-.532-.615-.968-.007-2.75.013-5.5-.01-8.251a8.261,8.261,0,0,0-.225-2.091,4.188,4.188,0,0,0-4.859-2.952,4.274,4.274,0,0,0-3.912,4.262c-.053,2.891-.017,5.782-.019,8.674,0,.383,0,.766,0,1.313-1.18,0-2.29.023-3.4-.025-.167-.007-.382-.323-.462-.538a2.2,2.2,0,0,1-.027-.734q0-11.16,0-22.32c0-.378.032-.756.051-1.187h3.831v9.472a7.443,7.443,0,0,1,5.53-2.7c4.418-.18,7.341,2.552,7.381,6.961.031,3.385.007,6.77,0,10.155C-361.688,646.242-361.73,646.515-361.76,646.892Z" transform="translate(404.714 -622.079)" fill="#150327"/>
      <path id="Path_24667" data-name="Path 24667" d="M-176.265,634.734h3.92v4.483h4.925v3.567h-4.909v5.88c0,.741-.009,1.482,0,2.222.026,1.852.956,2.741,2.792,2.6a19.682,19.682,0,0,0,2.172-.417c0,1.027.041,2.045-.029,3.055a1.055,1.055,0,0,1-.615.7,7.188,7.188,0,0,1-5.365-.05,4.321,4.321,0,0,1-2.738-4.062c-.115-2.853-.084-5.711-.114-8.566,0-.416,0-.831,0-1.35h-2.891v-3.537h2.85Z" transform="translate(247.539 -632.055)" fill="#150327"/>
    </g>
  </g>
</svg>
